<?xml version="1.0" encoding="utf-8"?>
<!-- Generator: Adobe Illustrator 24.1.2, SVG Export Plug-In . SVG Version: 6.00 Build 0)  -->
<svg version="1.1" id="Layer_1" xmlns="http://www.w3.org/2000/svg" xmlns:xlink="http://www.w3.org/1999/xlink" x="0px" y="0px"
	 viewBox="0 0 454.8 178" style="enable-background:new 0 0 454.8 178;" xml:space="preserve">
<path d="M3.5,94c2.1-2.3,4.9-4.3,6.1-7.1C16,73.2,22.2,59.4,28.1,45.5c3.5-8.2-2.9-18.4-11.9-19.5c-1.5-0.2-2.9-0.2-4.7-0.3
	c5.9-5.1,16.1-5.6,22.4-0.5c3.9,3.1,7.6,7.2,9.6,11.6c7.1,15.5,13.3,31.4,20.1,47c2.5,5.8,5.7,11.5,9,16.9
	c4.7,7.7,11.5,12.5,22.6,12.7c-8.3,4.2-15.1,3.5-21.9,0.8c-13.8-5.5-21-17.1-25.7-30.2c-2.3-6.4-5.2-9.2-11.9-8.1
	c-1.7,0.3-3.4,0-5.1,0.1c-4.5,0.5-10.2-1.7-11.7,5.5c-0.9,4.3-2.3,8.5-3.7,13.5c-2.9,0-7.3,0-11.8,0C3.5,94.8,3.5,94.4,3.5,94z
	 M42.8,71.8c-3.2-8.6-5.9-15.9-9.2-25c-3.9,9.4-7,16.9-10.3,25C30.3,71.8,35.7,71.8,42.8,71.8z"/>
<path d="M157.3,5.6c-9.6,6-15.3,15-19.8,25.1c-9.8,21.9-19.9,43.7-30.3,66.3c-3.3-7-6.4-13.5-9.4-20c-5.5-11.8-10.7-23.7-16.5-35.4
	c-2.5-4.9-6.1-9.3-9-13.6c6.9,0,15.1,0,22.5,0c0.7,3.8,0.7,7.8,2.1,11.3c4.4,11.5,9.3,22.8,14.6,35.6c2.3-5.1,4.1-8.9,5.7-12.7
	c4.6-10.8,9.4-21.5,13.8-32.4c4.1-10.3,10.4-18.5,19.8-24.3C153,5.6,155.2,5.6,157.3,5.6z"/>
<path d="M368.8,95.2c-5.9,0-12,0-17.3,0c0.6-3.9,1.7-7.7,1.8-11.5c0.2-13.7-0.3-27.3,0.3-41c0.3-6.7-2-11.3-6.7-15.6
	c-6.1-5.6-12.6-10.3-21.3-11.7c4.5,0,9.8-1.5,13.4,0.3c6.9,3.4,13.8,7.8,19.2,13.2c13.2,13,25.7,26.8,38.3,40.4
	c1.4,1.5,2.2,3.6,4.5,4.7c0.2-15.8,3.7-31.1-0.9-46.1c5.7,0,13.3,0,19.3,0c-1,2.7-3.2,6-3.3,9.4c-0.4,15.8-0.4,31.6,0,47.4
	c0.1,3,1.5,6.7,3.5,9c7.4,8.6,15.5,16.6,28.3,16.2c-10,4.4-19.1,1.7-26.6-4.9c-9.4-8.4-17.8-17.7-26.6-26.8
	c-8.7-9-17.3-18.2-26.9-27.2C367.7,65.6,365.4,80.1,368.8,95.2z"/>
<path d="M283.5,48.3c-4.1-14.2,9.5-25.2,27-21.5c19.2,4.1,29.9,18.8,28.7,38.1c-1,16-15.3,29.6-33.6,31.5
	c-13.4,1.4-26.5,0.4-37.7-8.4c-11-8.6-14.8-20.1-12.3-33.5c2.4-13,10.4-21.3,24.2-26.1c-10,14.9-11.3,30-6.9,45.6
	c3.5,12.5,12.9,19.3,24.8,19.1c12-0.2,20.9-7.3,24.3-19.8c2.9-10.7,2.4-21.2-2.5-31.2c-4.2-8.5-12.4-13-20.8-11.7
	c-8.5,1.3-12.7,6.3-14.5,17C284,47.6,283.7,47.9,283.5,48.3z"/>
<path d="M155.6,95.1c-4.6,0-8.6,0-12,0c2-3.3,4.4-6.5,6-10.1c5.8-12.8,11.4-25.7,17.1-38.6c4.2-9.7-2.9-20.7-13.6-21
	c-1,0-1.9,0.2-4.2,0.4c11.8-6,21.2-4.7,28.2,4.2c4.4,5.6,7.8,12.2,10.7,18.8c6.4,14.4,11.9,29.3,18.5,43.5c5.1,11,12,20.8,27.8,21.3
	c-11.5,5-20.4,2.7-28.7-2.9c-10-6.7-15.8-16.7-19.4-27.8c-1.7-5.4-4.5-7.8-10.1-6.9c-2.1,0.3-4.3,0-6.4,0
	C158.7,76.1,152.9,83.9,155.6,95.1z M172.2,46.8c-3.9,9.2-7,16.8-10.4,24.8c7,0,13,0,19.8,0C178.5,63.4,175.7,56,172.2,46.8z"/>
<path d="M308.4,106.9c-8.8,12.1-20.9,14.1-34.1,10.7c-7.4-1.9-14.5-5-21.5-8.1c-11.2-4.9-22.3-10.2-33.4-15.3
	c4.3-7.8,3.4-60.8-2-66.2c7.6,0,14.8,0,21.1,0c-0.8,3.7-2.3,7.4-2.4,11.2c-0.3,16,0,32-0.2,48c-0.1,6.6,2.2,10.2,8.8,11.8
	c10.8,2.5,21.4,5.9,32.1,8.4C287.3,109.8,297.9,111.1,308.4,106.9z"/>
<path d="M33.7,164.7c0-11.1,0-21.2,0-31.8c5.9,0,11.6-0.5,17.2,0.1c8,0.9,12.8,6.6,13.2,14.7c0.4,8-3.8,14.2-11.9,15.7
	C46.3,164.4,40.1,164.2,33.7,164.7z M41,161.8c5.7,1,10.7,1.1,13.9-4.2c3.3-5.4,3.1-14.7-0.7-19.5c-3.5-4.4-8-4.9-13.2-3.2
	C41,144,41,152.8,41,161.8z"/>
<path d="M121.3,155.1c0-4.3,0-6.7,0-9.2c0-2.5,0-5.1,0-8.2c1.9-0.1,3.7-0.2,5.7-0.3c0,8.8,0,17.1,0,26.8
	c-6.9-5.9-13.2-11.4-20.5-17.6c0,6.5,0,11.9,0,17.4c-2.5,0-4.3,0-6.2,0c0-8.7,0-17.2,0-27C107.4,143.1,113.6,148.5,121.3,155.1z"/>
<path d="M217.6,164.5c-9.7,0.1-15.6-5-15.7-13.6c-0.2-8.7,6-14.4,15.7-14.5c9.6-0.1,16.2,5.7,16.2,14.1
	C233.8,159.2,227.7,164.4,217.6,164.5z M228.5,150.7c-2.4-4.3-3.7-8.6-6.5-11.2c-3.3-3-7.6-2-10.7,1.6c-4,4.8-4,14.8,0,19.1
	c3.1,3.3,7.3,4.8,10.7,1.5C224.8,159,226.2,154.8,228.5,150.7z"/>
<path d="M240.5,164.4c0-9.2,0-17.7,0-27c8.7,0.4,18-3.1,24.9,5.1c3.8,4.5,3.8,10.3,0.8,15C259.8,167.2,249.6,163.5,240.5,164.4z
	 M247.3,139.1c-0.2,1.2-0.4,2.1-0.4,2.9c0,5.3,0.1,10.6-0.1,15.9c-0.2,4.2,1.8,5.1,5.5,4.7c6.9-0.8,9.9-5.9,8.8-14.9
	C260.3,140.7,256.4,138.2,247.3,139.1z"/>
<path d="M369.6,160.4c-1.5,4.8-2.1,5-18.7,3.5c0-4.4,0-8.7,0-13.1c0-4.2,0-8.5,0-13.4c5.8,0,11.5,0,17.1,0c0,0.4,0,0.9,0.1,1.3
	c-3.3,0-6.6,0-10.6,0c-0.1,2.3-0.1,4.3-0.3,6.3c-0.4,4.5,1.6,5.7,5.7,4.9c1.1-0.2,2.3,0.5,3.2,2.1c-2.6-0.2-5.2-0.4-8.4-0.6
	c0,3.7,0,6.9,0,11.6C361.8,162.1,365.6,161.3,369.6,160.4z"/>
<path d="M80.9,136.2c4.8,9.9,8.9,18.5,13.2,27.6c-2.7,0-5.1,0-7.5,0c-6-16.1-12.3-4-18.7-0.1C72.1,155,76.2,146.3,80.9,136.2z
	 M83,155.6c-1.5-3.6-2.5-6-4.1-9.9c-1.7,4-2.7,6.3-4,9.4C77.7,155.3,79.6,155.4,83,155.6z"/>
<path d="M167.6,163.8c0-8.8,0-17.3,0-26.1c6,0,11.7,0,17.3,0c0,0.5,0,1,0,1.5c-3.4-0.2-6.7-0.3-11.3-0.6c0.4,4,0,7.8,1.5,10.7
	c0.7,1.4,5.1,0.8,7.8,1.1c-0.1,0.5-0.2,1.1-0.3,1.6c-2.6-0.1-5.2-0.3-8.3-0.4c0,3.7,0,6.9,0,11.3c3.8-0.5,7.4-1,10.8-1.5
	C184.8,164.8,181.8,165.3,167.6,163.8z"/>
<path d="M398.6,138c-4.7,8-11.9,15.2-7.7,26.1c-3.2,0-5.8,0-9,0c4.3-10.5-3.1-17.7-7.6-26.1c4-1.7,7-2.3,8.9,2.9
	c1,2.8,3.2,5.3,5.1,8.5c3.2-4.7,5.9-8.6,8.5-12.5C397.4,137.2,398,137.6,398.6,138z"/>
<path d="M159.3,142.4c-7-5.6-12.7-6-16.7-1.2c-4,4.8-3.6,15.6,0.8,19.6c4.8,4.4,10.7,3.2,16.7-3.5c-0.8,5.8-4.5,7.9-13.3,7.2
	c-8.3-0.6-13.7-6.1-13.7-13.9c0-8.5,5.9-13.9,15.6-14.1C156.1,136.2,158.9,137.8,159.3,142.4z"/>
<path d="M341.6,137.6c-4.4,1.2-7.8,2.2-11.2,3.1c2.6,2.7,5.5,5.2,7.8,8.1c2.1,2.6,4.8,5.5,5.2,8.5c0.2,1.9-3,5.7-5.2,6.1
	c-3.9,0.8-8.2-0.2-12.2-0.9c-0.6-0.1-0.8-2.5-1.3-4.4c2.9,2,4.9,4.2,7.2,4.7c2.1,0.4,4.5-1.3,6.8-2c-0.8-1.9-1.3-4.3-2.6-5.7
	c-1.7-1.8-4.8-2.4-6.2-4.4c-1.9-2.6-4.4-6.5-3.7-8.9c0.8-2.4,5.1-4.2,8.2-5.2C336.3,136,338.9,137.2,341.6,137.6z"/>
<path d="M316.9,139.6c-0.9-0.4-1.9-1.1-2.7-1c-2.5,0.4-4.9,1.2-7.3,1.8c1.2,2,2.1,4.2,3.7,5.8c1.6,1.6,4.5,2.1,5.7,3.9
	c1.7,2.3,3.8,5.7,3.2,8.1c-0.6,2.4-3.8,5.1-6.4,6c-6.5,2.1-10.7-0.1-11.6-5.3c2.4,1.5,4.4,3.7,6.7,4c2.1,0.3,4.4-1.3,6.7-2.1
	c-0.8-2-1.2-4.3-2.6-5.8c-1.5-1.7-3.8-2.7-5.8-3.9c-3.7-2.2-6.3-5.8-4.1-9.4c1.6-2.6,5.8-4,9.1-5.1c1.7-0.6,4,0.6,6,1
	C317.3,138.3,317.1,138.9,316.9,139.6z"/>
<path d="M296.4,138c-4.9,8.1-11.7,15.5-8,26.1c-3,0-5,0-8,0c4.5-10.9-3.5-17.9-8.2-26.2c10.8-3.3,8.6,8.2,14.7,11.1
	c2.4-3.8,5.1-7.9,7.8-12C295.2,137.3,295.8,137.6,296.4,138z"/>
</svg>
