<svg id="Layer_1" data-name="Layer 1" xmlns="http://www.w3.org/2000/svg" viewBox="0 0 517.39 435.51"><path d="M195.13,302.93c7.77-7.16,14.84-15.66,27.13-14.1,1,.13,2.08,0,3.07.21,17.95,3.89,21.37-2.75,22.9-17.76,1.17-11.48,0-23.18.77-34.73.63-9.49,2.09-19,7.59-27.3,7-10.58,18.88-15.78,31.27-13.41,17.82,3.4,34.35,10.22,47.06,23.25,16,16.37,22.42,41.3,4.57,62-4.59,5.31-10.67,8.77-18.41,6.84-.47-2.87,2-3.58,3.49-4.58,14.47-9.7,14.55-27.63,2.82-39.28-8.93-8.87-19.84-11.68-31.61-8.55-13.07,3.48-18.53,14.11-21.44,26.43-2.36,10-1.23,20.23-2.34,30.31-1.66,15.1-8.16,26.95-22.4,33.25-5.94,2.62-12.14,2.12-18.31-.92-8.54-4.22-17.22-8.64-27.36-5.14-6.33,2.18-10.88,7-16.21,10.63-18.77,12.67-35.05,11.52-52.43-1-1.2-.86-2.48-1.86-1.53-3.52.73-1.28,1.51-1.68,3.42-.89,17,7.09,31.41,1.06,44.79-9.5,2.26-1.79,4.58-3.5,6.86-5.24C190.92,307.58,193,305.25,195.13,302.93Z" transform="translate(-51.86 -191.65)"/><path d="M66.62,484.74c-1.07-15.37-2.51-30.73-3.06-46.12A194.23,194.23,0,0,0,62,417.11c-2.4-16.35-.74-33.08-4.85-49.24-1.65-6.49-3-13.05-4.59-19.55-2.71-11.06,2.13-18,13.43-19.11,14.79-1.44,29.64-3.06,44.42-.8,13.93,2.13,27.44,6,33.5,20.74,5.14,12.51,6.84,25.52-.53,37.79-2.7,4.5-7.65,7.38-12.43,9.86-5.26,2.72-10.32,5.72-14.59,9.9-1.67,1.64-2.42,2.36.28,4.44,11.12,8.57,22.51,16.37,35.9,21.2,6.12,2.2,12.48,5.1,15.37,12,1.84,4.4.27,7.78-4.44,8.23-3.53.35-7.1.66-10.37-2-10.17-8.3-23.07-12.05-33.55-20C109.51,423,98.07,417.7,86.43,412.92c-5.9-2.42-7.2-1.85-6.61,4.24,1.51,15.85.76,31.74,1.3,47.59.23,6.6,2.13,13.13,3.23,19.7,1,6,.69,11.78-2.82,17.12-2.75,4.18-6.67,4.52-10.88,3.63s-4.72-4.32-4.65-8c.09-4.14,0-8.29,0-12.43ZM97,341c-5.9,0-10.25-.24-14.57.06-6.73.45-13.13,6.25-11,10.24,2.88,5.38,2,10.81,2.09,16.27.17,7.57,2.36,14.74,3.85,22.05.3,1.51,1.63,2.17,3.27,2.32,3.42.33,6.84,1.36,10.21,1.18,7.79-.41,16.22,2.14,23-3.7,4.85-4.15,9.92-8.27,13.86-13.23,8.4-10.57,6.87-17.56-3.56-26.41C115.67,342.54,106.41,339.2,97,341Z" transform="translate(-51.86 -191.65)"/><path d="M273.16,354.09c2.31-4.89,4.38-8.19,10-8.46,8.14-.38,14.68,1.53,18.76,8.86a70.12,70.12,0,0,1,6.36,16.17c.49,1.82,1,4.58,3.3,4.49,1.77-.06,1.49-2.54,1.69-4.18A30.9,30.9,0,0,1,324,350.5c8.13-7.12,14.88-6.13,20.37,3.22,5.9,10.08,8.28,21.29,11.24,32.38,2.58,9.68,2.84,19.65,4.77,29.39.55,2.74.31,6-2.2,7.14-3.56,1.68-7.33-.43-8.79-3.43-2.73-5.63-5.11-11.44-5.7-18-1-11.46-3.66-22.52-10.37-32.34-3.67-5.38-5.74-1.88-7.72.86-7.08,9.8-8.77,21.07-6.84,32.61.66,4,.1,8,1.6,12.06,1.85,4.94-1.45,8.85-7.95,9.56-4.19.45-7.7-1.86-7.94-6.65-.54-10.52-3.49-20.4-7.3-30.11-2-5-3.61-10.22-5.7-15.21-2.74-6.5-9.17-6.74-14.71-2.11-5.91,4.95-6.36,11.39-6.84,17.86-1.25,16.94,2.53,33.81,1,50.74-.39,4.39,0,9.48-5.35,12-4.83,2.28-6.34,1.28-7.1-4-2.65-18.4-1.16-36.87-1.56-55.31-.21-10.22-2-20.34-3.1-30.5-.93-8.93-.22-17.86,4.66-26,1.88-3.12,4.27-4.64,7.57-3.75,2.91.77,3.32,3.39,3.82,6.29C270.77,342.59,270.51,348.18,273.16,354.09Z" transform="translate(-51.86 -191.65)"/><path d="M306.25,278c2.18-2.09,5.05-3.39,3-6.32-1.27-1.85-2.79-3.69-5.56-3.08-3,.64-3.8,3.18-4.22,5.48-2.21,12.12,3.67,21.06,13.77,28.63,6.61,5,17.93,3,26.23-3.89,15.56-12.9,20.87-30,19.84-49.6a60.39,60.39,0,0,0-15.93-38.49c-5.05-5.6-11.81-8.48-17.86-12.49-1.88-1.24-4.67-2-3.31-4.9,1.66-3.52,3.51-.62,5.4.22,16.68,7.37,27.81,19.9,35.57,36.29,3.65,7.72,7.86,15,8.81,23.7,2.58,23.75,2,46.71-14.78,66.13-12.73,14.69-35.09,19.42-52.26,10-21.71-11.93-26.41-35-22.3-54.31,2.16-10.14,5.72-22.12,18.06-26.68,11.36-4.2,19.72,2.83,20.1,13.87C321.24,274.49,317,278.62,306.25,278Z" transform="translate(-51.86 -191.65)"/><path d="M452.31,307.56c-1.86,10.68-4.94,21.73-14.62,29.74-3.95,3.27-8.52,4.06-13.27,3.34-2.25-.34-5.62-.44-6.24-2.95-.4-1.64,2.22-3.22,3.86-4.63,3.94-3.4,3.63-10.32,1-15.09-4.17-7.5-9.56-12.49-18.45-13a17.64,17.64,0,0,1-4.08-1.22c-8.64-2.73-14.17-8.8-17.24-17-2.79-7.49-4.82-15.1-.84-23.06,7.76-15.55,23.34-17.92,36.89-11.52,7.13,3.37,11.53,9,16.18,15C444.58,278.9,451.29,291.4,452.31,307.56Z" transform="translate(-51.86 -191.65)"/><path d="M326,497.86c7.52-12.53,23.32-8.09,27.06,2.22a114.81,114.81,0,0,0,8.51,17.2,38.63,38.63,0,0,1,6.9-17.72c2.79-3.81,6.59-6.17,10.1-8.84,2.91-2.21,9.1,1.37,11.53,5.78,6.64,12,10.07,25.09,12.58,38.5,1.28,6.84,1.94,13.75,3,20.6.54,3.58-1.09,4.34-3,5.56-2.64,1.69-4.58.2-6.09-1.92a34.62,34.62,0,0,1-6.19-18,72.68,72.68,0,0,0-7.87-28c-2.76-5.52-4.26-5.89-8.35-1.35-5.61,6.23-7.25,14-6.63,22,.52,6.72-.18,13.49,1.43,20.22,1.15,4.77-3.3,6.27-6.88,7-5,1-7.52-2.91-7.68-6.83-.61-15-6.92-28.25-12.65-41.64-2.53-5.91-5.85-6.4-10.8-2.13-7,6-7.36,14.44-7.7,22.61-.56,13.61,2,27.15,1.29,40.8a25.66,25.66,0,0,1-2.71,9.9c-1.39,2.93-4,2.46-6.46,2.3-3-.18-1.91-2.62-2.13-4.27-1.94-15-1.53-30.1-1.29-45.12.23-14.11-4.57-27.64-3.61-41.76a25.49,25.49,0,0,1,7.19-16.51c1.59-1.68,3.47-2.41,5.57-1.63s2.15,2.8,2.11,4.73C323.07,487,325.38,492,326,497.86Z" transform="translate(-51.86 -191.65)"/><path d="M222.34,460.41c5.68-1.49,11.57,2,17.92,2.51,16.14,1.22,31-4.13,46.25-7.8,13.36-3.22,26.58-4,40.25-1.25,17.53,3.5,35.22,7.36,53,8.2a298.91,298.91,0,0,0,42.45-1.19c12.81-1.22,24.56-5.42,36.66-8.85a38,38,0,0,1,21.35,0c7.69,2.22,12.29,8.7,10.36,15-1.84,6-9.42,9.45-16.53,6.49-19.35-8.08-39.25-6.68-59.33-4.6-19,2-37.81,5.56-57.05,4.89-10.95-.38-21.07-4.32-31.66-6.19-12.87-2.27-25.16-1.38-37.19,3.8-6.36,2.75-13.19,4.21-19.62,6.91-3.16,1.32-7.18.79-10.92-.41-13.13-4.23-26.54-6.57-40.44-5.21-4.2.41-9.29,1-10-5.08-.56-4.68,3.39-7.22,9.94-7.22Z" transform="translate(-51.86 -191.65)"/><path d="M381.49,341.94c-2.52,18.36,1.61,37.29,4.95,56.29.37,2.11,1,4.46,2.79,5s2.49-2.12,3.72-3.24c6.44-5.9,8.2-14.57,13.18-21.32a40.57,40.57,0,0,1,10.34-10.28c7.89-5.12,14.75-1.94,21.09,3.14,6.72,5.4,5.27,12.54,3.84,19.72-3.44,17.33-17.13,25.95-29.72,35.51-4,3-8.65,4.95-12.8,7.85-7.11,5-14.89,2.08-17.12-6.27-2.66-9.94-3.89-20.26-6.57-30.18-3.94-14.57-3.56-29.73-6.9-44.41a94.44,94.44,0,0,1-1.65-27.62c.26-3.47,1.54-6.29,5.5-7.19,4.25-1,6,1.61,7.58,4.73C382.55,329.19,380.44,335.11,381.49,341.94Zm40.39,42.33c-4.32.31-7.08,2.88-9.22,5.83-5.31,7.32-8.93,15.62-12.23,24-.65,1.64-3.25,4.36-.77,6,2.1,1.44,5.15-.36,6.59-1.75,8.26-8,17.59-15.09,20.22-27.53C427.56,385.66,425.5,384.81,421.88,384.27Z" transform="translate(-51.86 -191.65)"/><path d="M434.23,490.21c13.72.69,24.76,7.32,34.67,16.17,4.31,3.85,8.11,8.27,12.23,12.34,7.8,7.72,4.83,20.73-.11,29.49-8.33,14.77-22.8,18.93-37.5,22.79-9.46,2.48-9.19,2.21-7.5,11.88,2.06,11.83,2,24,6.23,35.5.61,1.64.11,3.7.07,5.56a3,3,0,0,1-3.05,3.2c-1.78.15-2.6-.34-3.47-2.36-3.84-8.86-5-18.36-7.09-27.62-1.54-6.74-2.63-13.59-3.78-20.42-.62-3.7-3.38-3.08-5.74-3-3.08.11-5.74-.13-6.51-3.85s.79-6.43,4.19-7.08c6.82-1.31,7.17-5.75,6.94-11.37-.41-9.85.29-19.76-2.42-29.43-.39-1.37,0-3.48-1.53-3.77-8-1.57-6-7.73-5.82-12.73.19-6,4-9.87,8.93-13C426.53,490.3,430.26,490,434.23,490.21Zm-1.36,38.05h.21c0,7.83-.23,15.67.07,23.48.25,6.33,4.74,9.74,10.66,8,8-2.39,15.79-5.19,22.45-10.55,8.14-6.56,10-20.9,3.06-27.09-8.11-7.23-16.8-13.56-27.32-17.07-6.3-2.1-8.95-.7-9.1,5.88C432.76,516.66,432.87,522.46,432.87,528.26Z" transform="translate(-51.86 -191.65)"/><path d="M523.27,425.61c-25.42-.75-32.91-11.29-37.25-32.56-2-9.72-2-19.42,1.84-29.42,4.35-11.22,12-16.63,22.93-17.7,18.34-1.79,25.63,2.34,36,18.89,2.86,4.57,1.13,9.39-3.72,11.58-9.18,4.15-19.18,4.92-28.9,6.8-2,.38-3.91.55-5.9,1.07-11.11,2.93-13.67,10.29-5.55,18.59,6.79,7,14.59,10.53,25.49,9.41,12.28-1.27,23.87-4.2,35.5-7.7,2.09-.63,4.47-.6,5.18,1.91.82,2.93.22,5.8-2.74,7.47a62.49,62.49,0,0,1-18.74,6.69C538.5,422.4,529.74,425.09,523.27,425.61Zm-6.67-66.07c-6.87-1-11.85,1.39-15.48,7.43-1.86,3.1-.6,3.85,1.93,3.61,7.23-.68,14.44-1.59,21.61-2.67,1.53-.23,2.76-1.76,3.31-3.37.8-2.34-1.65-2.43-2.65-3.49C522.83,358.38,519.49,359.93,516.6,359.54Z" transform="translate(-51.86 -191.65)"/><path d="M119.23,551.89c1.1-21.08,4-41.92,13-61.24,5.53-11.77,12.67-22.23,26.51-26.23,9.48-2.74,18.09-1.6,26.72,2.39,2.67,1.23,2.56,3.56,2.22,5.84-.42,2.88-1.26,5.29-4.49,6.67-3.67,1.58-6.9.26-10.16-.53-16.13-3.92-23.41,1.29-31.13,14.65-7.4,12.83-10.49,27-11.44,41.94-.73,11.5-2,22.55,2.11,33.91,4.25,11.78,24.35,22.51,38.14,17.92,16.31-5.44,29.41-14.48,40.78-26.76,3.56-3.84,7.53-3.81,11.72-1.88,4.34,2,5,5.76,1.16,8.47-14.81,10.39-28.18,22.93-45.55,29.55-17.18,6.54-42.57.39-52.74-14.72C120.26,573.15,118.08,562.72,119.23,551.89Z" transform="translate(-51.86 -191.65)"/><path d="M153.37,368.93c.89-3.54-2.35-9.34,1.59-14.38,1.83-2.33,3.8-5,7.07-3.53,2.82,1.28,3.78,3.83,3.85,7.41.22,10.4-1.62,21.24,3,31,2.81,6,4.27,13.17,11.22,16.65S193.41,409,199,402c9.68-12.16,19-24.77,17.36-41.84-.28-2.82.63-5.62,1-8.39.84-6.43,5.12-6.53,9.45-5.8,4.14.71,8.67,2.35,8.13,7.91a363.58,363.58,0,0,0-1.4,41.22,25,25,0,0,0,4.8,15c1.94,2.61,4.75,4.38,1.33,7.47-4.48,4-10.64,4-13.45.13-3.36-4.58-4-10.1-5.2-15.39-.29-1.21-.17-2.81-1.52-3.13C217,398.56,218,401,217.41,402c-6.77,11.14-14.78,20.13-29.47,19.89-9.22-.15-16.18-4.79-21.15-11.23C157.89,399.12,152.05,386,153.37,368.93Z" transform="translate(-51.86 -191.65)"/><path d="M276.67,535c-5.65,5.37-8.78,12.89-15.76,17.09-11,6.64-26.37,2.06-32.3-8.82s-4.9-22-1.06-33.07a30.38,30.38,0,0,1,12.24-15.86c7.36-4.92,15-3,22.48-2.16,8.93,1,14.75,7.59,20.91,13.36,4.05,3.8,5.37,8.8,5.1,13.93-.47,9,3.22,16.72,6,24.82.81,2.39,5.54,5.23.05,7.76-6,2.78-10.27,1.85-12.47-3.11C279.89,544.55,278.46,539.9,276.67,535Zm-42.08-3.73c-1.41,6.1,4.22,9.45,9.83,12.66A9.68,9.68,0,0,0,256.78,542a46.14,46.14,0,0,0,13-27.6c.22-2.09,0-4-2-5.47a19.8,19.8,0,0,0-24.25.38C237.27,514.59,235.18,521.55,234.59,531.29Z" transform="translate(-51.86 -191.65)"/><path d="M456.36,420.73c2.92-32.07,2.83-64.47,3.69-96.84.24-9.27.74-18.57.78-27.86,0-4.23,1.56-7.21,5.56-7.28,4.36-.06,6.17,3.21,5.94,7.52-.4,7.39-1,14.79-1.07,22.18-.15,24.67.09,49.34-.19,74-.13,12.15,1.84,24.38-1.27,36.48-.91,3.58-.49,7.84-5.73,7.7-5.08-.14-6.69-4.2-7.62-8.25C455.91,426,456.36,423.44,456.36,420.73Z" transform="translate(-51.86 -191.65)"/><path d="M241.26,257.63c.72,6.48,1.15,13-5.35,18.21-10.06,8-26.46,5.29-32.49-6-7.46-14-2.38-28.38,12.1-34.26,12.57-5.11,25.4,3.2,25.74,16.67C241.3,253.89,241.26,255.54,241.26,257.63Z" transform="translate(-51.86 -191.65)"/><path d="M195.13,302.93c-2.11,2.32-4.21,4.65-6.3,7C189.94,306.66,192.66,304.91,195.13,302.93Z" transform="translate(-51.86 -191.65)"/></svg>