<?xml version="1.0" encoding="UTF-8"?>
<svg id="Layer_1" data-name="Layer 1" xmlns="http://www.w3.org/2000/svg" viewBox="0 0 341.66 313.4">
  <path d="m216.31,205.54c-1.85-.11-2.63-2.43-1.24-3.66,8.44-7.53,17.27-14.61,24.47-23.08,18.49-21.74,11.05-50.17-5.79-67.17-53.59-54.08-123.27-21.33-141.51,34.44-5.72,17.5-10.54,36.39-10.23,54.55.62,36.95,16.83,68.11,44.54,92.9,1.78,1.59,3.79,2.94,5.54,4.61,1.27,1.22.51,3.38-1.25,3.57-30.82,3.41-57.52-4.52-78.93-26.68-11.08-11.47-22.21-23.7-29.74-37.54-7.87-14.48-11.83-31.19-16.82-47.13-13.16-42.1.29-81.17,15.08-119.72,2.97-7.75,9.86-14.12,15.42-20.74C63.49,16.95,99.18,2.21,141.63,6.76c40.17,4.3,76.08,20.16,105.19,48.54,36.66,35.74,47.17,78.39,22.19,120.77-11.21,19.02-33.35,30.64-52.7,29.47Z"/>
  <path d="m221.35,7.33c-.96-.4-1.47-1.45-1.23-2.46,1.99-8.17,7.34-4.01,11.26-2.13,27.12,12.99,51.29,29.89,68.57,55.03,10.28,14.95,20.71,29.97,29.11,45.99,11.3,21.54,12.9,45.36,11.72,69.35-.08,1.52-.59,3.11-.3,4.56,4.32,22.04-4.09,41.52-11.44,61.51-12.01,32.65-34.09,55.55-66.19,67.36-53.19,19.57-114.29-3.31-135.11-60.22-13.62-37.25-6.76-72.92,17.03-104.42,20.05-26.55,54.38-25.1,67.95,1.66,9.07,17.87-1.17,42.41-21.15,45.35-.95.14-1.94-.33-2.26-1.24-.06-.16-.09-.31-.07-.46,1.06-13.92-2.38-20.26-11.48-20.98-8.13-.65-15.11,6.82-16.99,18.18-4.1,24.74,19.22,57.45,46,64.51,26.45,6.98,58.83-6.87,78.13-31.63,42.51-54.52,33.91-134.77-11.66-178.43-12.08-11.58-28.56-18.59-43.13-27.51-2.7-1.65-5.75-2.75-8.74-3.99Z"/>
</svg>