<svg id="Layer_1" data-name="Layer 1" xmlns="http://www.w3.org/2000/svg" viewBox="0 0 576.92 340.19"><defs><style>.cls-1{fill:#fff;}</style></defs><path d="M483.3,391a28.51,28.51,0,0,1-4.49-.64c-12.36-4.57-23.85-5.73-37.43-1.14C433.15,392,421.66,386,411.9,383a247.84,247.84,0,0,1-28.17-10.64c-3.07-1.35-6.86-4.6-7.27-7.42-.39-2.66,3.25-5.9,5.07-8.91,1.07-1.76,2.93-3.56,2.94-5.36q.33-43.18.08-86.39c0-2.27-1.65-4.67-2.91-6.79-3-5-1.51-10.38,4.24-11.53a40.37,40.37,0,0,1,17.08.67l-14.22.78,16.85,4.5,1.08,2.95c-10.27,2.59-9.49,10-9.48,17.09.07,27,.23,54,.05,81,0,6.29,1.89,10.12,8.07,12.39,7.28,2.67,14.09,6.59,21.33,9.4,3.71,1.43,7.91,1.6,12,1.49l-19.06-6.51c.93-2.8,1.43-4.64,2.14-6.38.85-2.09,1.53-5.56,2.91-5.9,6.9-1.71,5.84-6.85,5.84-11.65,0-26.21.09-52.41-.15-78.62a23.9,23.9,0,0,0-2.87-10c-2.69-5.38-1.35-10.51,4.51-11.34a49,49,0,0,1,19.51,1.55H435.19l16.49,4.41,1.11,2.65c-11.55,3.87-9.66,12.8-9.66,20.92q0,34.65.2,69.3c0,3.29.5,6.57,2.43,8.58,3,2.08,7.16,3.51,8.71,6.36,6.32,11.59,16.51,17.54,32.61,16.59L479.84,374c2.08-.62,3.32-1.09,4.59-1.36,5.44-1.17,7.6-3.17,4.38-9.16-1.43-2.67-1-7.93.83-10.32,1.7-2.23,6.35-2.21,9.69-3.18.21.76.41,1.52.62,2.28l-6.38,1.34c8.69,2.25,9.26,8.72,10.06,14.74.67,5,.61,10.1.89,15.4h35.56v1.69l-22.62-1.06-.11,1.41c6.09.6,12.2,1,18.25,1.85,43.56,6.33,64.74,54.45,40,90.71-1.84,14.31-14.24,16.79-24.41,19-11.66,2.49-24.23,2.37-36.2,1.23-10.51-1-11.66-5.9-6.13-15.22,1.2-2,1.25-4.93,1.26-7.43.1-20.51.05-41,.09-61.51,0-6.4,1.93-11.3,10.1-11.35,1,6.35,2.61,12.6,2.93,18.91.51,10.1.2,20.24.22,30.36,0,8.57.44,17.16-.11,25.69-.5,7.71,3.19,9.69,9.79,8.89a32.57,32.57,0,0,0,10.61-2.8h-13.2c0-.32,0-.63,0-.94,4.57-.53,9.25-.59,13.68-1.68,17.23-4.25,27.5-16.89,28.46-34.48,1.08-19.82-9.12-36.22-27.26-42.54-23.58-8.21-45.8-6.69-66,10.21l5.18-6.94c-7.53,5.18-12.63,12-13.36,21.39-.58,7.58,4.24,13,11.28,11,8.72-2.52,12.6-.05,13.91,8.36-12.14,10.89-32.67,5.34-36.74-10.43-4.15-16.09,2.2-28.93,13.87-39.65C476.18,396,479.25,394,483.3,391Z" transform="translate(-9.18 -198.83)"/><path d="M437.55,523.22c6.11-1.35,8.78,1.1,8.38,7.33-.05.8,1.29,1.69,2.06,2.62-9.91,10.84-31.94,6.1-38.56-9.9-4.1-9.95-6.33-20.78-8.47-31.41-3-15.11-7.07-27-13.5-35.18-3.29,1.34-6.74,3.71-10.33,4s-9.62-.61-10.57-2.76c-1.35-3-.35-9.49,2-11.29,5-3.72,11.47-5.46,17.42-7.78,4.3-1.68,9-2.48,13-4.58,5.14-2.67,7.18-7.5,5.6-13.2s-5.16-9.76-11.48-9.88c-11.1-.21-22.2-.06-33.89-.06.51-1.66.88-2.89,1.33-4.36-.92.36-2.11.5-2.23.94-1,3.39-2.38,6.83-2.42,10.27-.2,17.39.35,34.79-.13,52.16-.27,10,.64,19,9.09,25.56-6,5.61-20.3,6.29-26,1.45-4.14-3.52-3.74-8.41.3-12.79,1.85-2,3.58-5,3.62-7.64.31-20,0-40,.32-59.94.09-6.65-2.49-9.89-8.72-12.65-19.91-8.8-38.6-19.62-47.87-40.89-8.71-20-9.45-40.78-3.93-61.73,5.1-19.31,13-37.25,27.88-51.26,5.36-5,11.34-8.17,20.89-5.46l-10.56,1.68c8.38-.29,13.8,4.47,18.5,10.34,16.53,20.59,23.9,44.44,25.34,70.54.41,7.42,2.28,14.76,3.78,23.93-4.28,0-9.87.84-15.07-.21-6.68-1.35-8.5-6.62-4.82-12.37,6.11-9.56,3.41-19.55,1.62-29.41-.17-1-4.28-2.17-6.23-1.75a83.58,83.58,0,0,0-36.46,18.3c-3.22,2.7-4.86,8.54-11.22,6.76-.29-.08-3.72,6.25-3.32,9.27,1.61,12.08,6,23.18,15.67,31.29,19.1,16.06,40.8,25.39,66.19,24.88,6.22-.12,12.46-.12,18.68.2,11.89.6,19.15,6.67,22.89,18.72,3.52,11.32.73,22-7.91,28.84-2.1,1.66-5,2.34-7.95,3.69a36.64,36.64,0,0,0,.78,4.91c4.65,15.88,9.31,31.75,14.11,47.57,1.65,5.43,3,11.1,5.7,16,3.79,7,10.18,8.49,16.66,5.11ZM293.81,317.51C305.05,297.72,326,295.37,345,288.18c-3.24-6.08-5.86-12-9.37-17.35-8.12-12.36-11.59-12.35-21.1-.73-.21.26-.85.17-1.48.27.35-.76.68-1.4.95-2.08s.54-1.59.8-2.39A95,95,0,0,0,293.81,317.51Z" transform="translate(-9.18 -198.83)"/><path d="M271.82,348.48l5.88-2c-.63,1.41-.86,2.63-1.23,2.67-6.75.79-13.64,2.54-20.24,1.81-6.19-.69-7.19-7.34-4-12.8,2.71-4.62,5.26-10,5.59-15.24,1.15-17.78-3.71-34.43-12-50-2-3.75-4.9-7-8.42-11.94-3.26,5.18-6.29,8.69-7.85,12.77-2.65,6.9-6.87,11.59-14.24,12.72s-13.16-2.29-17.4-8.06c-2.89-3.94-5.17-8.33-8.07-13.11l-6.27,4.17,1.55-4.87a82.34,82.34,0,0,0-20.83,48.18c-.94,11.18.46,22.8,2.43,33.93,2.35,13.3,9.42,23.13,22.61,29.48,23.84,11.48,38.34,44.44,32.74,73.28-2.34,12.05-7.36,23.59-11,35l1.66-.43c0,.47.18,1,0,1.36-5,7.6-9.78,16.62-20.26,16-10.68-.61-13.5-10.79-17.79-18.63-2.6-4.77-5.16-9.56-8.25-15.3-3.86,9.16-7.31,17.37-10.76,25.58l.68.59,4.69-5.81c-6,17.54-19,20.55-31,6.36-14.85-17.65-20.44-38.64-19.56-61.55a78.64,78.64,0,0,0-.94-15.25c-1.27-7.87,2.88-11.45,14.67-10.71l-7,2.5c.27.5.4,1.08.6,1.1,2.56.33,5.4,0,7.63,1,3.39,1.53,6,3.64,3.28,8.43-9.86,17.39-5.22,50.78,8.81,64.8,1.9,1.89,4.55,3,7.75,5.08-.73-2.53-1.74-4-1.36-5,4.59-11.41,9.56-22.67,14.08-34.1,3.68-9.31,5.45-11.12,13.22-11.53-2.15,3.07,16.44,44.24,21.05,47.23,1.16-2.23,2-4.67,3.5-6.62,19.48-25.57,19.88-59.64.26-81-4.63-5-11.45-8-16.49-12.75-6.67-6.27-14.5-12.38-18.48-20.25-20.08-39.7-10.19-76.56,13.22-111.34,4.19-6.23,10-11.42,20.17-9.83-3.27,1.26-5.37,2.07-5.84,2.24,2.8,2.39,6.4,4.62,8.83,7.75,2.83,3.64,4.24,8.37,7,12.09,2.17,2.93,5.44,5.06,9.66,8.83-.46-4.19-1.25-6-.66-6.89,5.4-8,10.79-16.06,16.85-23.55,1.23-1.53,5.28-.77,8.28.3l-2.91.65c5,4.77,11.63,9.43,16,15.66,11.91,16.93,17.84,36.18,18.87,56.87C271,328.15,271.36,338,271.82,348.48Z" transform="translate(-9.18 -198.83)"/><path d="M291.82,393.72l-27.35,1.82c38.8-3.66,67.14,24,60.9,62.5-2.45,15.11-6.1,30.26-22.83,38.49C273.15,511,236,493,229.64,460c-.94-4.8-3-9.66-2.73-14.38,1.08-17.46,7.76-32.69,21.68-43.68C261.62,391.65,276.59,389.61,291.82,393.72Zm-20.89,90.62c14.46,1,21.39-.5,29.26-7.48,14.66-13,17.33-36.49,5.87-52.39-6.54-9.08-15.11-14.47-26.63-15.35-12.45-1-20.94,7.51-29.54,13.56-5,3.53-7,13.17-7.93,20.38-3.25,24.68,14.35,47,44,44.58Z" transform="translate(-9.18 -198.83)"/><path d="M437.8,523.07c-1.75-.53-4.91-.87-5-1.63-.75-5.46-7.66-11.82.68-16.25,4.37-2.32,4.89-5,4.87-9.2-.13-26.71.07-53.42-.18-80.12,0-3.59-1.48-7.38-3.07-10.7-2.65-5.52-1.12-9.58,4.27-11,5.22-1.38,10.88-1.11,16.34-1.57.06.72.11,1.44.17,2.17l-11.82.8,15.82,4.34c.36,1,.73,2,1.1,2.94-11,3-9.61,11.08-9.61,18.54,0,26.46.2,52.91-.08,79.36-.08,6.7,2.15,10.57,8.49,12.91,7.28,2.69,14.11,6.59,21.4,9.23a27.15,27.15,0,0,0,13.7.77L484.4,522c0-.36.07-.73.1-1.09,2.6,0,5.27.38,7.78-.08,5-.92,8.24-2.55,4.66-8.89-1.52-2.69-1.29-8,.49-10.43s6.44-2.23,9.85-3.21l.6,2-4.41,1.33,2.13-1.9c1.15,2.24,2.8,4.36,3.35,6.73A172.78,172.78,0,0,1,513,528c.18,1.7-2.84,5-4.87,5.45-8.11,1.86-16.67,4.82-24.57,3.74-8.67-1.18-16.63-6.84-25.2-9.65-6.68-2.2-12.72-8.41-20.77-4.34A2.3,2.3,0,0,1,437.8,523.07Z" transform="translate(-9.18 -198.83)"/><path class="cls-1" d="M270.93,484.34l15.08,3.3c-29.7,2.38-47.3-19.9-44-44.58.95-7.21,2.91-16.85,7.93-20.38,8.6-6.05,17.09-14.52,29.54-13.56,11.52.88,20.09,6.27,26.63,15.35,11.46,15.9,8.79,39.4-5.87,52.39C292.32,483.84,285.39,485.37,270.93,484.34Z" transform="translate(-9.18 -198.83)"/><path d="M117.73,300.4c-11-6.65-23.37-11.14-35-16.81-12.32-6-25.5-10.86-36.54-18.71-16-11.34-12.25-35.7,5.93-44.47-1.65,1.82-3.13,3.26-4.39,4.88A45.12,45.12,0,0,0,45,229.61c8.8-8.23,18.1-14.35,31.05-14.45l-22.5,43C62.3,246.62,69.39,234.28,76.5,222c2.93-5.08,6.41-7.87,13.18-6.6,16.42,3.07,29.05,10.19,35.37,26.68,1.13,3,5.14,5.53,8.39,6.75,1.83.69,4.83-1.75,7.3-2.78-2-1.51-4.17-1.5-4.25-1.91-1.7-8.53-3.61-17.07-4.48-25.7-.49-4.81-1.81-7.33-6.82-7.05-.76.93-1.74,2.75-2.25,2.63a32.69,32.69,0,0,1-7.26-2.69C103.42,205,91.18,198.66,76.46,201c0-.67.07-1.35.1-2a3.53,3.53,0,0,0,.33-.17H59.47a55.56,55.56,0,0,1-7.64,4.82c-17.17,7.23-28.28,20.35-28.44,40-.15,18.5,8.28,31,28.21,41C68,293,85.37,299.32,102.09,307c12.47,5.73,23.38,13.72,29.44,26.57,11.36,24.08-5.56,53.59-34,58.26-11.53,1.89-23.44,1.44-35.17,2.06-.06.15-.11.3-.16.44l32,1.78c-14,3.23-23.58,2.81-38.13-2.1-12.3-4.14-23.51-9.9-30-21.93-6-11-4.17-22.06,5.33-30.48-.84,2.43-1.46,4.2-2.62,7.54,14.22-16.6,27.91-17.92,43.91-5.55,1.64,1.27,3.32,3.4,5,3.47,4.28.17,8.61-.58,12.9-1.1.27,0,.4-1.27.68-2.24l-2.69.8C82.25,323.75,65,322.72,48,321a47.69,47.69,0,0,1,10.92-.65c3.52.18,7,.66,10.53,1a51.09,51.09,0,0,0-35.73.58c-12.58,4.86-21.05,14.75-23.52,26.82-2.74,13.37,0,26.43,10.72,37.91,28.71,30.62,85.55,32.92,115.56,3.44a7.29,7.29,0,0,0,1-2l-3.16-.39c2.69-3.65,5.7-6.92,7.74-10.71a50.11,50.11,0,0,0,5-13C152.33,339.48,141.2,314.52,117.73,300.4Z" transform="translate(-9.18 -198.83)"/></svg>